{"title":"Jack the Giant Slayer 2013 BRRip 480p x264 - VYTO [P2PDL]","uid":8527395,"size":384678269,"categoryP":"video","categoryS":"movies","magnet":"?xt=urn:btih:044609d1cdab0738362d6165adb48f248e4dc99f&amp;dn=Jack+the+Giant+Slayer+2013+BRRip+480p+x264+-+VYTO+%5BP2PDL%5D&amp;tr=udp%3A%2F%2Ftracker.openbittorrent.com%3A80&amp;tr=udp%3A%2F%2Fopen.demonii.com%3A1337&amp;tr=udp%3A%2F%2Ftracker.coppersurfer.tk%3A6969&amp;tr=udp%3A%2F%2Fexodus.desync.com%3A6969","seeders":1,"leechers":0,"uploader":"ValidusVyto","files":-1,"time":1370055257,"description":"_________________________  Visit us at _________________________\n  &lt;a href=&quot;\nhttp://p2pdl.com&quot; rel=&quot;nofollow&quot; target=&quot;_NEW&quot;&gt;\nhttp://p2pdl.com&lt;/a&gt;  ____________________________ &lt;a href=&quot; http://p2pdl.com&quot; rel=&quot;nofollow&quot; target=&quot;_NEW&quot;&gt; http://p2pdl.com&lt;/a&gt;\n\n\nJack the Giant Slayer 2013 BRRip 480p x264 - VYTO\n\n\nGenre: Adventure | Fantasy\nPlot: The ancient war between humans and a race of giants is reignited when Jack, a young farmhand fighting\nfor a kingdom and the love of a princess, opens a gateway between the two worlds.\nDirector: Bryan Singer \nStars: Nicholas Hoult, Ewan McGregor, Stanley Tucci.\nRated: PG-13 for intense scenes of fantasy action violence, some frightening images and brief language.\n\n\nInfo: &lt;a href=&quot;\nhttp://www.imdb.com/title/tt1351685/&quot; rel=&quot;nofollow&quot; target=&quot;_NEW&quot;&gt;\nhttp://www.imdb.com/title/tt1351685/&lt;/a&gt;\n\nTrailer:\n\n\nFormat                         : MPEG-4\nFile size                      : 361 MiB\nDuration                       : 1h 54mn\nOverall bit rate mode          : Variable\nOverall bit rate               : 442 Kbps\nSource                         : 720p.BluRay.x264-SPARKS\n\nVideo\nFormat                         : AVC\nBit rate                       : 399 Kbps\nWidth                          : 720 pixels\nHeight                         : 304 pixels\nDisplay aspect ratio           : 2.35:1\nFrame rate mode                : Constant\nFrame rate                     : 23.976 fps\nStream size                    : 326 MiB (90%)\nWriting library                : x264 core 130 r2273\n\nAudio\nFormat                         : AAC\nBit rate                       : 40.0 Kbps\nChannel(s)                     : 2 channels\nChannel positions              : Front: L R\nSampling rate                  : 48.0 KHz\nStream size                    : 32.7 MiB (9%)\nLanguage                       : English\n\nSubtitle                       : Yes(English)\n\n &lt;a href=&quot;\nhttp://ultraimg.com/images/ywNe.png&quot; rel=&quot;nofollow&quot; target=&quot;_NEW&quot;&gt;\nhttp://ultraimg.com/images/ywNe.png&lt;/a&gt; &lt;a href=&quot;\nhttp://ultraimg.com/images/Yz7Vc.png&quot; rel=&quot;nofollow&quot; target=&quot;_NEW&quot;&gt;\nhttp://ultraimg.com/images/Yz7Vc.png&lt;/a&gt; &lt;a href=&quot;\nhttp://ultraimg.com/images/7dKnq.png&quot; rel=&quot;nofollow&quot; target=&quot;_NEW&quot;&gt;\nhttp://ultraimg.com/images/7dKnq.png&lt;/a&gt; &lt;a href=&quot;\nhttp://ultraimg.com/images/FESxW.png&quot; rel=&quot;nofollow&quot; target=&quot;_NEW&quot;&gt;\nhttp://ultraimg.com/images/FESxW.png&lt;/a&gt; &lt;a href=&quot;\nhttp://ultraimg.com/images/YyaoB.png&quot; rel=&quot;nofollow&quot; target=&quot;_NEW&quot;&gt;\nhttp://ultraimg.com/images/YyaoB.png&lt;/a&gt; &lt;a href=&quot;\nhttp://ultraimg.com/images/pYQU4.png&quot; rel=&quot;nofollow&quot; target=&quot;_NEW&quot;&gt;\nhttp://ultraimg.com/images/pYQU4.png&lt;/a&gt; &lt;a href=&quot;\nhttp://ultraimg.com/images/CnBAl.png&quot; rel=&quot;nofollow&quot; target=&quot;_NEW&quot;&gt;\nhttp://ultraimg.com/images/CnBAl.png&lt;/a&gt; &lt;a href=&quot;\nhttp://ultraimg.com/images/wXsfB.png&quot; rel=&quot;nofollow&quot; target=&quot;_NEW&quot;&gt;\nhttp://ultraimg.com/images/wXsfB.png&lt;/a&gt;\n\n\n----------------------------------------------------------------------------------------------------\n\n\nEncoded using revolutionary 10bit encoding, which enables us to provide you more crispier \nand sharper images at small sizes, just make sure you follow our instructions without a fault.\nRecommend to you to use latest version of VLC player. Install K-Lite Codec Pack or shark007 codecs\nin case of any kind of problem in playback (For non-VLC Media Player users). Alternatively, install\nCore AVC codecs, the fastest decoder that there is coupled with Community Center Codec Pack and play\non Windows Media Player Classic. Check sample to be sure.\nEnjoy!\n\nEncoder Notes:Looking For Early Access To Anything You Can Provide DVDScr, R5, DVDR, BluRay, Direct\nAudio, Music Releases and Seedboxes. We require dedicated servers, so as to do more \nand fast releases of movies.\nIf You Got anything to offer please contact us at &quot;&lt;a class=&quot;__cf_email__&quot; href=&quot;/cdn-cgi/l/email-protection&quot; data-cfemail=&quot;91f2feffe5f0f2e5d1e1a3e1f5fdbff2fefc&quot;&gt;[email&amp;#160;protected]&lt;/a&gt;&lt;script cf-hash='f9e31' type=&quot;text/javascript&quot;&gt;\n/* &lt;![CDATA[ */!function(){try{var t=&quot;currentScript&quot;in document?document.currentScript:function(){for(var t=document.getElementsByTagName(&quot;script&quot;),e=t.length;e--;)if(t[e].getAttribute(&quot;cf-hash&quot;))return t[e]}();if(t&amp;&amp;t.previousSibling){var e,r,n,i,c=t.previousSibling,a=c.getAttribute(&quot;data-cfemail&quot;);if(a){for(e=&quot;&quot;,r=parseInt(a.substr(0,2),16),n=2;a.length-n;n+=2)i=parseInt(a.substr(n,2),16)^r,e+=String.fromCharCode(i);e=document.createTextNode(e),c.parentNode.replaceChild(e,c)}}}catch(u){}}();/* ]]&gt; */&lt;/script&gt;&quot;.\n\nFace book Fan Page:   &lt;a href=&quot;\nhttp://www.fb.me/p2pdl&quot; rel=&quot;nofollow&quot; target=&quot;_NEW&quot;&gt;\nhttp://www.fb.me/p2pdl&lt;/a&gt;","torrent":{"xt":"urn:btih:044609d1cdab0738362d6165adb48f248e4dc99f","amp;dn":"Jack+the+Giant+Slayer+2013+BRRip+480p+x264+-+VYTO+%5BP2PDL%5D","amp;tr":["udp%3A%2F%2Ftracker.openbittorrent.com%3A80","udp%3A%2F%2Fopen.demonii.com%3A1337","udp%3A%2F%2Ftracker.coppersurfer.tk%3A6969","udp%3A%2F%2Fexodus.desync.com%3A6969"],"infoHash":"044609d1cdab0738362d6165adb48f248e4dc99f","infoHashBuffer":{"type":"Buffer","data":[4,70,9,209,205,171,7,56,54,45,97,101,173,180,143,36,142,77,201,159]},"announce":[],"urlList":[]}}